<svg xmlns="http://www.w3.org/2000/svg"  viewBox="0 0 96 96" width="50px" height="50px"><path fill="#4d4dff" d="M48.072,86.04c-2.335,0-4.691-0.846-6.544-2.517C30.108,73.227,17,59.612,17,45.626 c-0.579-21.553,14.345-32.27,28.457-33.072c1.021-0.056,1.97,0.411,2.555,1.174c0.616-0.736,1.576-1.156,2.603-1.062 C64.749,14.09,79.008,24.833,79,45.627c-0.007,16.634-19.218,33.579-25.104,38.376C52.224,85.365,50.157,86.039,48.072,86.04z M47.93,17.473c-0.514,0.614-1.271,1.022-2.132,1.071c-11.691,0.665-23.274,9.272-22.799,27.002 C23,58.737,39.38,73.508,45.546,79.068c1.512,1.362,3.477,1.164,4.559,0.284c10.56-8.604,22.891-22.6,22.896-33.728 c0.006-17.044-11.541-25.836-22.987-26.988C49.153,18.55,48.415,18.108,47.93,17.473z" opacity=".3"/><path fill="#4d4dff" d="M47.986,85.039c-1.96,0-4.021-0.664-5.789-2.258C35.58,76.813,18,60.961,18,45.626 C17.436,24.6,31.411,14.354,45.514,13.552c1.104-0.053,2.048,0.781,2.11,1.884s-0.78,2.047-1.884,2.11 c-12.173,0.692-24.234,9.627-23.741,28.026C22,59.182,38.62,74.169,44.876,79.811c1.929,1.739,4.459,1.461,5.86,0.316 C54.62,76.963,73.994,60.427,74,45.625c0.007-17.669-11.992-26.786-23.887-27.983c-1.1-0.111-1.9-1.092-1.79-2.19 c0.111-1.099,1.076-1.898,2.19-1.79C64.2,15.039,78.008,25.458,78,45.627c-0.007,16.609-20.607,34.236-24.736,37.602 C51.9,84.339,49.997,85.038,47.986,85.039z" opacity=".3"/><path fill="#4d4dff" d="M47.996,84.041c-1.733,0-3.561-0.589-5.129-2.003C36.34,76.152,19,60.517,19,45.626 c-0.547-20.383,12.95-30.301,26.57-31.075c0.554-0.034,1.023,0.39,1.055,0.941c0.031,0.551-0.39,1.023-0.941,1.055 C33.028,17.268,20.488,26.529,21,45.6c0,14.027,16.859,29.23,23.207,34.954c2.34,2.109,5.436,1.755,7.161,0.349 C55.313,77.688,74.994,60.879,75,45.626c0.007-18.295-12.444-27.737-24.787-28.979c-0.549-0.056-0.949-0.546-0.895-1.096 c0.055-0.548,0.544-0.939,1.096-0.895C63.652,15.989,77.007,26.082,77,45.626c-0.007,16.158-20.3,33.512-24.368,36.827 C51.435,83.428,49.765,84.041,47.996,84.041z"/><g><path fill="#db3eb1" d="M59.077,61.148c-2.645,0-4.986-1.027-6.608-2.707 c-3.106-3.219-3.831-9.303,1.919-15.057c1.818-1.816,3.76-3.077,5.772-3.75c1.51-0.507,3.141,0.26,3.73,1.715 c0.003-0.004,0.005-0.008,0.008-0.012c0.872-1.41,2.721-1.845,4.129-0.975c2.195,1.356,3.661,3.674,4.021,6.357 c0.469,3.487-0.9,7.153-3.854,10.324c-0.049,0.052-0.099,0.103-0.15,0.15C65.053,59.981,61.894,61.148,59.077,61.148z M63.671,44.045c-0.355,0.582-0.91,1.047-1.608,1.279c-1.108,0.371-2.296,1.168-3.433,2.304c-2.902,2.903-3.018,5.431-1.845,6.646 c1.307,1.352,4.151,1.298,7.092-1.396c1.634-1.784,2.444-3.731,2.226-5.357c-0.122-0.909-0.559-1.638-1.229-2.053 C64.31,45.119,63.901,44.614,63.671,44.045z M66,55h0.01H66z" opacity=".3"/><path fill="#db3eb1" d="M59.07,60.142c-2.363,0-4.444-0.906-5.882-2.396c-2.778-2.877-3.367-8.378,1.906-13.655 c1.707-1.704,3.518-2.885,5.382-3.508c1.051-0.353,2.182,0.215,2.531,1.262c0.351,1.048-0.215,2.182-1.262,2.531 c-1.273,0.426-2.56,1.281-3.823,2.544c-3.382,3.385-3.37,6.481-1.857,8.048c1.647,1.708,5.096,1.773,8.52-1.383 c1.881-2.041,2.771-4.239,2.509-6.198c-0.163-1.212-0.765-2.195-1.695-2.771c-0.939-0.581-1.23-1.813-0.649-2.753 c0.58-0.938,1.812-1.229,2.753-0.649c1.939,1.198,3.235,3.255,3.556,5.64c0.428,3.186-0.849,6.563-3.594,9.51 c-0.033,0.034-0.066,0.068-0.101,0.101C64.579,59.057,61.656,60.142,59.07,60.142z M66,55h0.01H66z" opacity=".3"/><path fill="#db3eb1" d="M59.049,59.131c-2.079,0-3.892-0.784-5.142-2.079c-2.449-2.537-2.901-7.454,1.896-12.254 c1.596-1.594,3.274-2.692,4.991-3.267c0.525-0.173,1.091,0.107,1.266,0.631c0.176,0.524-0.107,1.091-0.631,1.266 c-1.421,0.476-2.838,1.412-4.212,2.785c-3.862,3.864-3.723,7.531-1.87,9.45c1.993,2.065,6.06,2.248,9.972-1.395 c2.072-2.229,3.072-4.737,2.767-7.015c-0.204-1.515-0.971-2.753-2.16-3.488c-0.47-0.29-0.615-0.906-0.325-1.376 c0.291-0.471,0.908-0.617,1.376-0.325c1.685,1.041,2.811,2.835,3.091,4.923c0.388,2.882-0.797,5.97-3.335,8.694 C64.12,58.115,61.413,59.131,59.049,59.131z"/></g><g><path fill="#db3eb1" d="M36.907,61.148c-2.817,0-5.976-1.166-8.968-3.953c-0.052-0.048-0.102-0.099-0.15-0.15 c-2.953-3.171-4.322-6.837-3.854-10.324c0.36-2.684,1.826-5.001,4.021-6.357c1.409-0.869,3.258-0.435,4.129,0.975 c0.003,0.004,0.006,0.009,0.009,0.013c0.589-1.456,2.216-2.222,3.731-1.716c2.012,0.673,3.953,1.934,5.769,3.747 c5.752,5.757,5.027,11.841,1.921,15.06C41.894,60.121,39.551,61.148,36.907,61.148z M32.107,52.877 c2.941,2.694,5.786,2.748,7.092,1.396c1.173-1.215,1.058-3.742-1.847-6.647c-1.135-1.134-2.322-1.931-3.431-2.302 c-0.697-0.233-1.253-0.698-1.607-1.28c-0.231,0.57-0.64,1.074-1.203,1.423c-0.671,0.415-1.107,1.144-1.229,2.053 C29.663,49.146,30.474,51.093,32.107,52.877z" opacity=".3"/><path fill="#db3eb1" d="M36.914,60.142c-2.586,0-5.508-1.085-8.293-3.678c-0.034-0.032-0.067-0.066-0.101-0.101 c-2.745-2.947-4.021-6.324-3.594-9.51c0.32-2.385,1.616-4.441,3.556-5.64c0.941-0.58,2.173-0.288,2.753,0.649 c0.581,0.939,0.29,2.172-0.649,2.753c-0.931,0.575-1.532,1.559-1.695,2.771c-0.263,1.959,0.628,4.157,2.509,6.198 c3.425,3.156,6.873,3.091,8.52,1.383c1.513-1.566,1.524-4.663-1.859-8.049c-1.262-1.261-2.548-2.117-3.82-2.543 c-1.048-0.351-1.612-1.483-1.262-2.531c0.351-1.047,1.479-1.612,2.531-1.262c1.864,0.624,3.674,1.804,5.379,3.507 c5.275,5.278,4.687,10.779,1.908,13.656C41.358,59.235,39.276,60.142,36.914,60.142z" opacity=".3"/><path fill="#db3eb1" d="M36.921,59.136c-2.354,0-5.041-1.004-7.618-3.404c-2.588-2.774-3.772-5.862-3.385-8.744 c0.28-2.088,1.406-3.882,3.091-4.923c0.467-0.292,1.085-0.146,1.376,0.325c0.29,0.47,0.145,1.086-0.325,1.376 c-1.189,0.735-1.956,1.974-2.16,3.488c-0.306,2.277,0.694,4.786,2.816,7.064c3.863,3.595,7.929,3.41,9.922,1.345 c1.853-1.919,1.992-5.586-1.87-9.451c-1.374-1.372-2.791-2.309-4.211-2.784c-0.523-0.175-0.807-0.742-0.631-1.266 c0.175-0.522,0.742-0.804,1.266-0.631c1.716,0.574,3.395,1.673,4.99,3.266c4.797,4.801,4.345,9.718,1.896,12.255 C40.823,58.351,39.002,59.136,36.921,59.136z"/></g></svg>